<?xml version="1.0" standalone="no"?>
<!DOCTYPE svg PUBLIC "-//W3C//DTD SVG 20010904//EN"
 "http://www.w3.org/TR/2001/REC-SVG-20010904/DTD/svg10.dtd">
<svg version="1.0" xmlns="http://www.w3.org/2000/svg"
 width="700.000000pt" height="700.000000pt" viewBox="0 0 700.000000 700.000000"
 preserveAspectRatio="xMidYMid meet">
<metadata>
Created by potrace 1.14, written by Peter Selinger 2001-2017
</metadata>
<g transform="translate(0.000000,700.000000) scale(0.100000,-0.100000)"
fill="#000000" stroke="none">
<path d="M3250 6234 c-384 -45 -637 -114 -920 -251 -162 -78 -369 -196 -417
-237 -30 -26 -30 -23 2 -98 9 -22 -41 -74 -80 -84 -24 -6 -33 -2 -57 24 -15
18 -32 32 -37 32 -5 0 -45 -26 -88 -58 -74 -56 -403 -382 -403 -401 0 -5 -7
-15 -16 -22 -18 -15 -127 -174 -194 -285 -195 -318 -317 -726 -337 -1130 -6
-141 -1 -184 23 -184 12 0 11 -5 -6 -22 -21 -22 -26 -54 -12 -75 4 -7 41 -16
81 -19 86 -8 76 -24 -16 -24 -59 0 -63 -2 -63 -22 0 -33 27 -209 33 -215 3 -2
42 -5 86 -6 101 -2 106 -18 13 -43 -125 -33 -190 -77 -218 -151 -16 -40 -16
-54 -6 -116 7 -39 22 -86 33 -104 30 -48 101 -99 160 -114 27 -7 53 -18 58
-24 4 -5 25 -55 46 -110 47 -123 127 -293 194 -412 21 -39 173 -260 221 -323
32 -41 103 -125 158 -186 431 -477 966 -775 1582 -880 152 -26 186 -28 430
-28 291 -1 386 9 605 64 146 35 469 145 497 167 7 6 51 30 98 53 289 143 549
345 830 645 127 136 183 207 299 383 152 229 242 420 338 713 l54 167 57 33
c67 40 75 60 31 76 l-32 12 40 44 c22 24 48 56 58 70 13 21 25 27 52 27 l35 0
-4 93 c-3 69 -10 104 -28 141 -25 53 -125 161 -156 169 -17 4 -17 5 -1 6 10 0
22 13 27 27 8 21 14 24 33 18 12 -4 33 -8 47 -8 l25 -1 3 333 2 332 -23 0
c-12 0 -33 -7 -46 -17 l-24 -16 7 -266 c4 -146 5 -263 2 -260 -3 3 -10 50 -16
105 -21 209 -76 460 -145 669 -62 188 -211 478 -327 636 -26 37 -48 71 -48 77
0 6 -3 12 -8 14 -4 2 -36 39 -71 83 -35 44 -92 109 -127 145 l-62 65 1 75 c1
86 -20 139 -73 183 -61 52 -168 62 -242 23 l-45 -24 -99 65 c-251 162 -606
314 -889 379 -244 56 -331 66 -615 69 -151 2 -291 1 -310 -1z m605 -129 c314
-41 617 -137 910 -289 140 -72 295 -165 295 -177 0 -4 -8 -16 -17 -28 -18 -20
-18 -20 -116 40 -300 184 -643 316 -977 376 -133 24 -168 27 -430 27 -304 1
-393 -7 -590 -50 -372 -83 -817 -296 -1120 -539 -115 -91 -309 -282 -393 -385
-82 -102 -213 -303 -281 -430 -130 -247 -217 -549 -248 -860 -12 -115 -13
-120 -35 -120 -22 0 -23 3 -23 78 0 163 47 422 111 615 76 230 233 518 387
712 138 173 372 403 446 438 171 81 188 92 227 138 47 57 129 110 299 196 298
150 627 242 975 273 135 12 433 4 580 -15z m22 -175 c341 -50 722 -192 1005
-376 83 -54 425 -385 546 -529 168 -200 305 -448 391 -711 90 -273 121 -453
121 -706 0 -147 0 -148 -30 -195 -70 -110 -90 -211 -66 -331 16 -78 16 -84 -5
-179 -44 -208 -150 -495 -250 -676 -113 -205 -307 -462 -336 -444 -6 4 -14 28
-18 54 -17 114 -106 305 -191 412 -101 126 -270 235 -434 280 -124 35 -385 27
-492 -14 -12 -5 -18 -2 -18 7 0 8 -14 36 -31 64 -18 27 -36 64 -41 82 -8 28
-19 38 -61 57 -29 12 -60 25 -70 29 -27 9 -15 20 69 67 100 55 121 75 142 134
17 47 21 50 70 65 65 19 75 30 96 109 9 35 28 78 41 95 13 18 40 66 59 108 33
74 36 76 76 83 23 4 42 5 44 3 1 -1 10 -15 19 -30 9 -15 71 -68 137 -118 67
-50 173 -138 236 -194 63 -57 137 -116 165 -131 98 -53 230 -41 320 28 58 44
80 86 86 160 5 62 5 62 -51 145 l-57 82 17 49 c17 47 17 49 -5 91 -21 40 -21
44 -5 61 40 44 36 164 -15 471 -29 170 -46 218 -80 218 -17 0 -19 14 -23 228
l-5 227 -30 70 c-21 47 -41 77 -63 93 -44 30 -90 29 -118 -3 -30 -35 -40 -32
-52 18 -35 135 -52 167 -89 167 -16 0 -37 -10 -50 -24 l-23 -24 26 -98 c13
-55 28 -109 32 -121 3 -14 2 -23 -4 -23 -11 0 -37 68 -132 353 -35 104 -71
198 -80 210 -15 19 -22 20 -56 11 l-39 -9 3 -72 c2 -75 42 -282 93 -487 16
-65 27 -121 25 -123 -2 -3 -34 20 -70 51 -86 73 -108 78 -151 36 -18 -17 -41
-46 -50 -64 l-18 -32 93 -145 c134 -209 132 -206 220 -301 74 -80 79 -88 70
-113 -17 -46 -11 -83 40 -239 28 -84 50 -158 50 -165 0 -26 -60 25 -138 117
-87 102 -197 199 -264 233 -24 12 -61 36 -83 54 -59 47 -115 73 -207 95 -110
26 -367 58 -529 67 -107 5 -129 9 -124 20 3 8 5 21 5 28 0 8 28 20 72 30 108
27 218 86 275 148 26 29 77 72 112 96 137 93 192 180 199 315 4 68 0 93 -22
160 -35 104 -85 177 -155 227 -46 33 -59 49 -71 87 -14 44 -18 48 -60 58 -32
7 -49 18 -60 37 -14 25 -13 28 14 56 44 45 38 76 -22 132 -60 55 -214 136
-332 175 -72 23 -107 28 -225 32 -119 3 -154 1 -229 -17 -159 -38 -336 -138
-419 -237 -37 -44 -118 -214 -124 -261 -5 -37 -3 -41 29 -60 30 -18 36 -28 41
-68 12 -88 9 -101 -38 -156 -67 -79 -89 -143 -90 -264 0 -92 3 -105 31 -166
39 -83 89 -138 179 -200 38 -27 97 -69 130 -95 107 -84 125 -88 292 -74 79 7
147 10 151 6 10 -11 -20 -26 -54 -26 -120 0 -331 -61 -473 -136 -83 -44 -84
-44 -105 -26 -29 27 -75 40 -160 48 -62 5 -80 3 -122 -15 -95 -42 -153 -127
-162 -238 -4 -49 -9 -64 -23 -68 -20 -7 -81 -181 -114 -330 -10 -44 -21 -83
-25 -87 -3 -4 -23 22 -44 58 -20 36 -46 74 -57 85 -20 20 -83 27 -94 9 -11
-18 -24 -11 -41 21 -12 25 -14 37 -5 56 6 13 11 44 11 68 0 63 -63 243 -91
260 -5 4 -9 15 -9 26 0 12 -7 19 -19 19 -11 0 -23 5 -26 10 -3 6 -17 10 -31
10 -27 0 -32 -26 -13 -62 14 -25 -3 -68 -26 -68 -17 0 -64 48 -65 66 0 7 -11
19 -24 28 -14 8 -31 28 -38 43 -7 15 -22 32 -34 38 -11 5 -19 15 -17 21 2 7
-8 21 -23 33 -26 20 -26 20 -63 1 -21 -10 -43 -26 -51 -34 -14 -18 -16 -15
153 -200 l68 -75 -20 -20 c-12 -12 -21 -30 -21 -40 0 -18 -3 -18 -45 6 -56 31
-59 36 -60 98 -1 45 -4 51 -33 68 -18 10 -40 16 -51 12 -24 -7 -41 -50 -37
-95 2 -19 4 -56 5 -82 1 -43 7 -54 80 -140 67 -80 127 -136 204 -190 16 -12
16 -15 -9 -51 -33 -45 -35 -41 81 -218 133 -203 161 -237 231 -281 65 -41 68
-45 80 -113 9 -55 27 -87 69 -123 42 -37 71 -46 129 -40 135 16 275 169 250
276 -3 15 -19 43 -34 62 -26 33 -60 93 -60 105 0 3 13 5 29 5 21 0 36 8 50 29
22 31 137 276 187 398 30 76 44 91 44 49 0 -81 33 -392 42 -404 7 -8 39 -33
72 -57 47 -32 74 -44 116 -49 109 -13 118 -16 130 -47 14 -32 87 -81 194 -129
36 -17 66 -34 66 -38 0 -4 -23 -16 -50 -26 -51 -18 -90 -55 -90 -85 0 -9 -9
-34 -20 -56 -11 -21 -25 -54 -31 -72 -8 -25 -15 -32 -27 -29 -115 37 -186 46
-332 47 -182 1 -207 -4 -355 -78 -137 -69 -180 -100 -282 -206 -96 -100 -120
-139 -189 -309 -29 -71 -55 -132 -57 -135 -8 -7 -150 174 -223 284 -114 171
-262 489 -292 628 -6 28 -13 90 -16 138 -7 106 -20 138 -78 204 l-45 50 -13
160 c-16 193 -9 493 15 648 58 378 205 720 449 1040 81 107 279 310 391 400
297 239 711 443 1057 518 305 68 657 81 955 37z m-501 -139 c103 -21 197 -59
299 -118 86 -51 122 -79 113 -89 -4 -4 -47 17 -95 46 -66 41 -95 53 -121 52
-19 -2 -41 3 -49 10 -9 7 -34 18 -57 24 -23 6 -68 19 -101 28 -82 23 -326 23
-405 0 -94 -27 -109 -27 -59 0 116 63 307 82 475 47z m2056 -101 l33 -29 -37
16 c-21 9 -40 23 -42 30 -9 22 12 15 46 -17z m-202 -5 c0 -8 -2 -15 -4 -15 -2
0 -6 7 -10 15 -3 8 -1 15 4 15 6 0 10 -7 10 -15z m38 4 c-2 -6 -8 -10 -13 -10
-5 0 -11 4 -13 10 -2 6 4 11 13 11 9 0 15 -5 13 -11z m-1956 -13 c119 -26 234
-83 308 -152 l65 -63 -141 6 c-286 12 -558 -51 -788 -182 -44 -25 -80 -44 -82
-42 -1 1 3 36 10 78 14 87 42 141 117 223 28 31 47 56 42 56 -54 0 -233 -103
-233 -135 0 -11 -54 -85 -62 -85 -5 0 -8 7 -8 15 0 8 4 15 10 15 5 0 27 26 49
58 21 32 56 70 77 84 150 104 452 162 636 124z m1897 -18 c15 -9 17 -16 10
-30 -6 -10 -15 -15 -21 -12 -6 4 -8 3 -5 -3 4 -6 0 -16 -8 -23 -8 -7 -15 -19
-15 -26 0 -8 -4 -14 -9 -14 -5 0 -15 -20 -22 -45 -11 -37 -17 -44 -36 -43 -14
2 -23 9 -23 20 0 23 21 68 32 68 4 0 8 7 8 15 0 8 5 15 10 15 6 0 10 4 10 9 0
11 40 81 46 81 2 0 13 -5 23 -12z m185 -28 c28 -10 56 -57 56 -94 0 -41 -41
-80 -85 -80 -30 0 -44 7 -66 32 -44 49 -33 107 25 136 37 19 38 19 70 6z
m-1919 -197 c-38 -8 -114 -46 -109 -55 11 -18 214 -4 214 16 1 34 16 38 74 20
58 -18 73 -34 34 -34 -59 0 -175 -96 -217 -179 -85 -166 -18 -544 122 -684 38
-39 65 -53 157 -84 10 -4 4 -10 -18 -20 -32 -13 -37 -12 -77 12 -24 13 -57 36
-74 50 -91 77 -173 280 -192 473 -5 58 -12 109 -16 112 -3 3 -3 -49 0 -115 4
-98 11 -136 35 -207 30 -86 66 -164 103 -224 l19 -31 -43 -21 c-24 -12 -70
-28 -102 -36 -156 -40 -525 -86 -579 -72 -79 20 -176 178 -216 350 -30 128
-25 293 10 374 65 149 370 295 723 346 84 13 199 20 152 9z m1844 -69 c174
-131 422 -461 547 -729 138 -296 221 -631 236 -950 3 -58 2 -60 -24 -63 -30
-4 -25 -26 -53 229 -53 489 -279 984 -611 1339 -128 137 -174 191 -174 206 0
23 14 17 79 -32z m216 -4 c41 -42 47 -52 35 -60 -8 -5 -18 -10 -21 -10 -13 0
-89 90 -89 105 0 27 25 16 75 -35z m-1664 10 c10 -6 19 -15 19 -21 0 -5 -13
-3 -30 6 -16 9 -30 18 -30 20 0 8 20 6 41 -5z m-131 -33 c0 -16 -41 -42 -60
-38 -8 2 -12 -1 -7 -5 4 -4 -6 -13 -23 -20 -16 -7 -30 -20 -30 -29 0 -8 -4
-15 -10 -15 -5 0 -10 5 -10 10 0 6 -5 10 -11 10 -5 0 -7 -6 -3 -12 5 -9 3 -9
-7 0 -12 11 -9 18 19 43 18 16 38 27 44 23 6 -4 8 -3 4 4 -3 6 11 16 36 25 54
19 58 20 58 4z m903 -51 c6 -16 -2 -28 -14 -20 -12 7 -11 34 0 34 5 0 11 -6
14 -14z m1067 -141 c319 -424 505 -931 522 -1425 l3 -95 -25 0 c-25 0 -25 0
-41 165 -19 190 -29 251 -69 410 -83 332 -235 640 -466 940 -75 99 -83 117
-62 138 16 16 50 -17 138 -133z m-2120 61 c0 -10 -34 2 -38 13 -3 10 0 10 17
2 11 -7 21 -13 21 -15z m171 14 c28 -15 24 -41 -16 -100 -70 -103 -83 -238
-36 -358 25 -64 26 -66 4 -58 -15 5 -15 4 1 -9 11 -8 17 -17 14 -20 -3 -3 -19
10 -36 30 -28 31 -47 79 -66 168 -5 19 -13 27 -27 27 -20 0 -21 4 -17 68 5 85
46 179 99 227 42 38 50 40 80 25z m-1137 -15 c3 -8 1 -15 -3 -15 -5 0 -11 7
-15 15 -3 8 -1 15 3 15 5 0 11 -7 15 -15z m1213 -7 c-3 -8 -6 -5 -6 6 -1 11 2
17 5 13 3 -3 4 -12 1 -19z m-287 -9 c0 -5 5 -7 10 -4 16 10 12 -15 -5 -31 -17
-18 -20 -34 -4 -34 6 0 4 -9 -5 -21 -8 -12 -12 -28 -9 -37 4 -10 2 -13 -5 -8
-8 5 -12 -3 -13 -26 -1 -30 -2 -29 -15 17 -13 50 -9 86 18 138 10 19 28 23 28
6z m487 -24 l28 -25 -38 15 c-29 12 -46 13 -75 6 -21 -6 -40 -7 -45 -2 -18 18
5 31 53 31 38 0 55 -6 77 -25z m653 -31 c0 -8 -5 -12 -10 -9 -6 4 -8 11 -5 16
9 14 15 11 15 -7z m-56 -51 c4 -21 9 -46 12 -55 3 -10 1 -18 -5 -18 -11 0 -31
62 -31 98 0 35 17 17 24 -25z m-586 -2 c17 -12 40 -41 52 -66 19 -38 21 -59
19 -129 -4 -73 -7 -87 -33 -120 -59 -78 -139 -84 -201 -15 -47 53 -55 76 -55
165 0 86 12 116 66 164 33 28 43 32 80 27 23 -2 56 -14 72 -26z m-257 -32 c-6
-18 -11 -66 -11 -108 0 -91 -11 -117 -30 -72 -16 39 -6 118 21 180 22 50 37
49 20 0z m926 -1 c-3 -7 -5 -2 -5 12 0 14 2 19 5 13 2 -7 2 -19 0 -25z m-42
-145 c4 -31 3 -53 -2 -53 -11 0 -31 100 -25 120 7 21 19 -8 27 -67z m235 46
c0 -6 -4 -7 -10 -4 -5 3 -10 11 -10 16 0 6 5 7 10 4 6 -3 10 -11 10 -16z m-33
-81 c-3 -7 -5 -2 -5 12 0 14 2 19 5 13 2 -7 2 -19 0 -25z m-2366 -221 c-3 -16
-7 -14 -24 13 -22 34 -36 164 -22 197 9 21 53 -180 46 -210z m2283 151 c15
-52 13 -75 -4 -48 -6 8 -10 24 -10 36 0 11 -5 25 -11 31 -10 10 -5 33 6 33 2
0 10 -23 19 -52z m286 31 c0 -5 -7 -9 -15 -9 -15 0 -20 12 -9 23 8 8 24 -1 24
-14z m64 6 c3 -8 1 -15 -3 -15 -5 0 -11 7 -15 15 -3 8 -1 15 3 15 5 0 11 -7
15 -15z m-440 -37 c9 -37 7 -83 -3 -72 -15 14 -26 94 -13 94 5 0 12 -10 16
-22z m253 -20 c-3 -7 -5 -2 -5 12 0 14 2 19 5 13 2 -7 2 -19 0 -25z m63 -35
c0 -7 -4 -13 -10 -13 -5 0 -10 12 -10 28 0 21 2 24 10 12 5 -8 10 -21 10 -27z
m170 -50 c0 -28 -3 -34 -10 -23 -13 20 -13 60 0 60 6 0 10 -17 10 -37z m-635
-7 c17 -13 26 -28 22 -32 -4 -4 -22 6 -40 24 -37 37 -25 43 18 8z m383 -5 c3
-9 -2 -11 -17 -6 -13 4 -28 1 -36 -5 -12 -10 -15 -9 -15 3 0 28 59 35 68 8z
m-215 -32 l-7 -34 -7 30 c-6 19 -4 32 4 37 16 10 18 6 10 -33z m314 19 c-3 -8
-6 -5 -6 6 -1 11 2 17 5 13 3 -3 4 -12 1 -19z m-577 -3 c11 -13 10 -14 -4 -9
-9 3 -16 10 -16 15 0 13 6 11 20 -6z m527 -67 c-2 -13 -4 -5 -4 17 -1 22 1 32
4 23 2 -10 2 -28 0 -40z m103 -23 c0 -63 -3 -75 -16 -75 -14 0 -16 8 -10 61
13 112 26 119 26 14z m-415 -10 c0 -10 -5 -20 -11 -22 -7 -2 -10 6 -7 22 6 26
0 29 -45 25 -21 -1 -22 1 -12 20 l11 21 32 -24 c18 -14 32 -33 32 -42z m212
13 c-3 -7 -5 -2 -5 12 0 14 2 19 5 13 2 -7 2 -19 0 -25z m-307 -134 c0 -8 -2
-14 -4 -14 -8 0 -76 94 -76 104 1 16 80 -74 80 -90z m184 64 c9 -12 16 -31 16
-42 0 -18 -1 -18 -19 -2 -20 18 -34 66 -20 66 4 0 15 -10 23 -22z m184 -40
c18 -38 6 -80 -22 -76 -18 3 -21 11 -24 56 -3 47 -1 53 15 50 10 -2 24 -15 31
-30z m-224 -27 c33 -27 78 -67 98 -88 l38 -39 -20 -52 c-11 -29 -20 -61 -20
-72 0 -11 -4 -20 -9 -20 -12 0 -177 156 -202 191 l-21 30 33 50 c19 27 36 49
38 49 2 0 31 -22 65 -49z m356 -34 l5 -67 -28 0 c-27 0 -28 2 -22 38 3 20 8
52 11 70 9 56 29 31 34 -41z m-36 -103 c3 -9 6 -30 6 -47 l-1 -32 -19 24 c-20
23 -26 52 -13 64 11 11 20 8 27 -9z m-56 -40 c44 -12 71 -116 37 -144 -12 -10
-13 -5 -8 38 5 42 2 53 -16 71 -26 26 -43 27 -65 2 -38 -42 -11 -121 41 -121
12 0 23 -4 23 -10 0 -20 -51 -10 -75 15 -19 18 -25 35 -25 67 0 48 6 59 35 76
24 13 24 13 53 6z m-1148 -85 c103 -11 392 -57 399 -65 10 -9 -11 -18 -44 -18
-19 0 -31 -3 -26 -6 5 -3 -30 -23 -77 -44 -48 -22 -114 -52 -147 -69 -33 -16
-118 -55 -190 -88 -71 -32 -124 -59 -117 -59 9 0 10 -5 2 -19 -6 -13 -10 -141
-10 -348 0 -180 -4 -334 -9 -342 -10 -15 -25 481 -20 617 2 45 1 82 -3 82 -11
0 -11 8 -8 -431 1 -218 -1 -406 -5 -419 -7 -21 -10 -22 -74 -15 -36 4 -232 36
-436 72 -203 35 -399 69 -433 75 -51 9 -65 16 -72 33 -13 35 -32 358 -34 575
-1 171 1 199 16 223 41 62 242 170 383 206 68 17 220 41 263 41 22 0 10 -44
-13 -48 -42 -7 -158 -55 -183 -77 -33 -29 -24 -51 30 -75 100 -43 406 -53 541
-16 62 17 173 68 195 90 38 38 -46 84 -168 93 -73 6 -90 13 -90 42 0 11 21 13
118 7 64 -4 160 -12 212 -17z m1444 -76 c34 -162 58 -327 51 -360 -3 -19 -9
-33 -12 -30 -3 4 -29 75 -57 159 -29 84 -58 163 -64 174 l-12 22 -77 -31 c-43
-17 -80 -33 -82 -34 -5 -3 29 -132 94 -351 32 -106 55 -196 51 -199 -3 -4 -36
-6 -74 -6 -66 1 -68 2 -104 43 -45 50 -100 187 -157 389 -23 79 -41 147 -41
150 0 3 57 6 128 6 116 0 132 2 183 26 31 15 76 48 100 73 24 25 46 46 50 46
3 0 14 -35 23 -77z m-1931 40 c-7 -2 -19 -2 -25 0 -7 3 -2 5 12 5 14 0 19 -2
13 -5z m-1030 -89 c3 -4 -9 -26 -28 -51 -43 -56 -68 -131 -69 -205 0 -35 -5
-58 -12 -58 -20 0 -34 50 -34 123 0 56 5 81 23 112 31 54 99 99 120 79z m65
-61 c-26 -27 -56 -67 -68 -91 -46 -89 -53 -45 -7 48 22 44 75 90 106 90 9 0
-2 -17 -31 -47z m1847 19 c-28 -15 -65 -48 -86 -76 -41 -55 -99 -203 -99 -254
0 -20 -4 -31 -10 -27 -5 3 -10 39 -10 78 1 157 111 308 225 307 29 0 28 -2
-20 -28z m204 -28 c39 -8 40 -20 1 -28 -38 -7 -124 -86 -140 -129 -7 -18 -19
-47 -27 -66 -11 -25 -14 -53 -10 -103 3 -37 3 -68 1 -68 -12 0 -47 48 -71 98
-20 42 -24 62 -19 95 9 59 59 142 108 177 42 31 87 38 157 24z m-3079 -23 c0
-6 -4 -13 -10 -16 -5 -3 -10 1 -10 9 0 9 5 16 10 16 6 0 10 -4 10 -9z m2597
-53 c-3 -7 -28 -64 -56 -127 -62 -141 -75 -217 -68 -376 6 -134 18 -178 62
-226 16 -19 29 -43 30 -54 0 -15 5 -19 20 -16 11 2 37 4 57 4 20 1 34 5 32 9
-3 4 2 8 10 8 9 0 16 -4 16 -9 0 -14 -30 -22 -54 -15 -12 4 -18 3 -14 -1 9
-10 -10 -35 -26 -35 -6 0 -3 5 7 11 9 6 15 14 12 19 -9 15 -44 -12 -37 -28 4
-12 0 -14 -16 -10 -12 4 -25 2 -28 -3 -3 -5 -10 -9 -15 -9 -6 0 -7 5 -4 10 7
11 -6 13 -29 4 -9 -3 -13 -10 -10 -15 3 -5 1 -9 -5 -9 -34 0 -48 105 -62 470
-12 337 -20 305 95 370 76 42 91 47 83 28z m-2547 -19 c0 -5 -4 -9 -10 -9 -5
0 -10 7 -10 16 0 8 5 12 10 9 6 -3 10 -10 10 -16z m1030 -10 c0 -10 -7 -19
-15 -19 -16 0 -19 9 -9 34 8 20 24 11 24 -15z m49 -13 c-9 -8 -10 -7 -5 7 3
10 7 24 7 30 1 7 3 4 6 -7 3 -10 -1 -23 -8 -30z m2065 16 c3 -5 -10 -14 -28
-20 -32 -12 -107 -85 -132 -128 -7 -10 -15 -16 -19 -12 -18 18 59 142 98 158
28 11 74 12 81 2z m-2924 -62 c10 -19 10 -20 -9 -8 -22 13 -28 28 -11 28 5 0
14 -9 20 -20z m-109 -11 c15 -15 18 -24 10 -32 -7 -7 -16 -3 -30 14 -35 42
-18 56 20 18z m3043 -37 c-12 -9 -31 -35 -42 -57 -15 -27 -21 -34 -21 -20 0
29 23 66 50 81 33 18 38 17 13 -4z m-2859 -89 c3 -18 2 -40 -3 -49 -8 -14 -12
-6 -21 35 -6 29 -11 62 -11 74 1 21 1 21 14 -3 8 -14 17 -39 21 -57z m-469 46
c19 -21 19 -21 -6 -18 -14 2 -26 12 -28 22 -5 23 11 22 34 -4z m898 -18 c22
-42 79 -88 136 -108 46 -16 66 -33 39 -33 -5 0 -7 -4 -4 -10 8 -13 -27 -156
-70 -280 -20 -58 -42 -127 -49 -155 -13 -56 -34 -67 -86 -45 -23 10 -33 26
-58 98 -17 48 -34 99 -37 114 -8 30 91 448 106 448 5 0 15 -13 23 -29z m-704
-16 c-7 -9 -15 -13 -18 -10 -3 2 1 11 8 20 7 9 15 13 18 10 3 -2 -1 -11 -8
-20z m3300 0 c14 -7 36 -15 50 -18 38 -9 103 -69 141 -129 18 -29 46 -70 62
-90 15 -21 25 -42 22 -48 -4 -6 -1 -24 5 -41 12 -28 11 -31 -32 -69 -25 -22
-51 -53 -58 -70 -13 -31 -13 -31 -34 -12 -12 11 -74 54 -138 97 -131 85 -127
79 -103 180 18 74 18 75 3 75 -30 -1 -41 -20 -47 -84 l-6 -66 -27 14 c-16 8
-28 12 -28 9 0 -4 -2 -4 -5 -1 -8 8 22 154 39 186 8 16 27 44 42 61 23 28 31
31 58 25 17 -3 42 -12 56 -19z m-3189 -32 c13 -16 12 -17 -3 -4 -17 13 -22 21
-14 21 2 0 10 -8 17 -17z m-193 -78 c46 -40 50 -50 25 -59 -11 -5 -29 7 -59
41 -74 82 -53 93 34 18z m323 -57 c11 -21 11 -22 -4 -9 -10 7 -17 17 -17 22 0
15 9 10 21 -13z m193 -110 c65 -101 150 -267 166 -327 10 -39 9 -47 -7 -70
-11 -14 -41 -40 -68 -58 l-48 -34 -82 125 c-82 124 -168 240 -184 250 -7 5
-97 -20 -109 -29 -2 -2 35 -55 82 -119 49 -68 87 -111 90 -104 3 7 3 3 0 -10
-4 -15 0 -24 10 -28 9 -3 16 -11 16 -16 0 -6 16 -28 35 -50 36 -40 39 -66 6
-48 -35 18 -123 124 -212 254 l-90 130 56 13 c98 22 222 101 257 163 13 22 24
40 26 40 1 0 27 -37 56 -82z m3436 32 c0 -31 -3 -38 -15 -34 -10 4 -13 14 -9
33 14 54 24 55 24 1z m1012 -47 c38 -35 86 -118 75 -130 -3 -2 -14 0 -25 6
-27 14 -32 6 -32 -57 0 -72 -24 -120 -68 -139 -70 -29 -153 16 -168 91 -10 57
12 138 53 191 l36 47 -32 -7 c-17 -3 -31 -4 -31 -1 0 14 60 35 102 36 42 0 54
-5 90 -37z m-304 -7 c-10 -7 -15 -16 -11 -19 3 -4 -2 -7 -12 -7 -17 0 -17 1 0
20 10 11 23 20 29 20 6 0 3 -7 -6 -14z m-36 -86 c-4 -29 -6 -32 -13 -15 -5 12
-8 -14 -8 -65 0 -56 5 -94 14 -110 20 -34 20 -56 1 -37 -25 24 -40 138 -27
199 7 29 17 56 24 60 15 9 15 9 9 -32z m-908 -61 c28 -13 56 -64 56 -101 -1
-12 -8 -36 -16 -53 -8 -16 -12 -21 -9 -10 4 18 3 18 -11 -2 -9 -13 -21 -23
-27 -23 -5 0 -3 8 6 18 37 41 9 152 -38 152 -47 0 -67 -64 -40 -132 5 -12 2
-16 -11 -14 -22 3 -32 29 -33 79 -1 30 6 45 28 68 32 31 55 36 95 18z m-864
-33 c0 -2 -8 -10 -17 -17 -16 -13 -17 -12 -4 4 13 16 21 21 21 13z m1172 -18
c19 -22 20 -39 1 -45 -6 -2 -13 6 -16 17 -3 12 -15 24 -27 27 -16 4 -18 8 -8
14 20 13 29 11 50 -13z m-1232 -28 c0 -5 -5 -10 -11 -10 -5 0 -7 5 -4 10 3 6
8 10 11 10 2 0 4 -4 4 -10z m-30 -15 c0 -11 -41 -25 -53 -18 -8 5 -4 9 13 14
33 9 40 10 40 4z m-117 -22 c-7 -2 -19 -2 -25 0 -7 3 -2 5 12 5 14 0 19 -2 13
-5z m2057 -132 c0 -5 -7 -8 -15 -5 -8 4 -15 13 -15 21 0 8 -4 12 -9 9 -4 -3
-17 4 -27 16 -11 12 -13 18 -6 14 7 -4 12 -1 12 9 0 10 10 4 30 -18 17 -19 30
-40 30 -46z m-5151 0 c35 -16 80 -66 69 -76 -3 -3 -16 -1 -30 4 -32 12 -58 -3
-58 -33 0 -35 25 -52 55 -38 14 7 25 19 25 29 0 11 3 14 10 7 19 -19 -5 -68
-42 -88 -40 -21 -54 -52 -34 -76 19 -21 33 -69 16 -53 -7 6 -19 9 -26 6 -18
-7 -76 30 -146 92 -55 48 -58 52 -58 98 0 48 31 127 50 127 18 0 25 2 44 15
22 16 76 10 125 -14z m1171 -122 c8 -1 -1 -5 -20 -8 -39 -8 -53 -4 -44 11 3 5
16 7 28 4 11 -3 28 -6 36 -7z m149 -16 c18 -40 -1 -44 -32 -7 l-29 34 24 0
c17 0 29 -8 37 -27z m3764 -33 c-2 -74 -88 -324 -175 -512 -33 -71 -45 -88
-63 -88 -12 0 -24 3 -27 6 -3 3 12 47 34 97 48 109 120 303 142 381 9 31 23
81 32 112 13 47 19 55 37 52 19 -3 22 -9 20 -48z m147 6 c0 -20 -46 -176 -84
-286 -53 -152 -146 -350 -165 -350 -46 1 -44 14 17 151 65 146 107 260 142
384 12 44 26 88 31 98 11 20 59 23 59 3z m-2792 -210 l57 -14 -48 -1 c-47 -1
-188 39 -214 61 -10 8 -10 14 -2 24 9 11 24 7 80 -22 39 -19 95 -41 127 -48z
m-2300 36 c15 -21 45 -83 66 -138 147 -370 409 -739 725 -1021 322 -287 662
-470 1065 -573 246 -63 346 -75 626 -74 218 1 261 3 390 27 343 61 635 180
927 376 325 219 599 496 783 791 30 47 60 93 68 103 17 20 62 23 62 4 0 -22
-105 -197 -178 -297 -246 -334 -601 -634 -971 -820 -203 -102 -404 -169 -651
-217 -127 -25 -152 -27 -430 -27 -323 -1 -400 8 -660 74 -357 90 -703 268
-990 508 -122 102 -356 342 -441 452 -181 234 -331 504 -410 741 -44 130 -36
166 19 91z m2204 -93 c105 -29 298 -36 413 -16 50 9 91 12 93 8 2 -5 13 -7 25
-4 18 3 19 2 6 -6 -54 -35 -481 -48 -584 -17 -123 37 -197 86 -179 118 3 4 38
-9 79 -28 41 -20 107 -45 147 -55z m-512 -99 c78 -20 153 -50 90 -36 -201 46
-354 26 -570 -75 -111 -51 -125 -55 -135 -40 -9 15 54 68 127 106 147 78 307
93 488 45z m360 -1 c0 -5 10 -9 22 -9 25 0 139 -30 150 -39 4 -3 -6 -6 -23 -7
-16 -1 -29 3 -29 7 0 5 -5 9 -11 9 -5 0 -7 -4 -4 -10 10 -16 -10 -12 -80 16
-36 15 -70 35 -75 45 -9 16 -8 17 20 8 16 -6 30 -15 30 -20z m1510 -4 c40 -14
89 -34 109 -46 87 -51 161 -105 161 -117 0 -17 -13 -13 -164 50 -265 111 -365
126 -566 83 -37 -8 47 24 105 40 28 8 101 14 166 14 98 1 127 -3 189 -24z
m-1233 -61 c-3 -3 -12 -4 -19 -1 -8 3 -5 6 6 6 11 1 17 -2 13 -5z m-498 -49
c121 -33 201 -76 273 -146 72 -71 75 -93 6 -43 -28 21 -63 39 -77 40 -14 2
-32 3 -39 3 -7 1 -10 6 -7 11 3 6 1 10 -4 10 -6 0 -11 -4 -11 -10 0 -5 -12
-10 -27 -11 -25 0 -26 -1 -8 -9 11 -5 16 -9 11 -9 -4 -1 10 -16 32 -33 59 -48
148 -187 173 -269 34 -113 25 -189 -38 -321 -29 -61 -69 -126 -93 -152 -50
-54 -156 -126 -185 -126 -12 0 -31 16 -47 39 -26 36 -32 40 -90 46 -208 24
-348 162 -348 343 0 71 33 142 95 206 63 66 134 98 225 104 l75 5 38 81 c20
44 37 84 37 87 0 12 -85 41 -146 50 -86 12 -165 -3 -257 -50 l-78 -39 -34 34
c-19 19 -35 38 -35 42 0 14 63 69 110 95 109 63 273 71 449 22z m1581 -1 c32
-11 74 -38 104 -66 l51 -46 -21 -28 c-37 -50 -45 -51 -131 -12 -104 48 -182
62 -268 48 -54 -9 -138 -34 -154 -46 -2 -2 14 -44 35 -94 l38 -90 82 0 c77 0
84 -2 140 -38 66 -43 114 -94 144 -152 31 -61 29 -204 -5 -271 -55 -107 -143
-164 -282 -183 -84 -11 -85 -12 -104 -48 -10 -20 -23 -39 -29 -43 -17 -10
-152 76 -206 131 -72 73 -140 214 -158 325 -8 46 -19 102 -26 124 -16 56 -13
111 6 93 3 -4 0 -16 -6 -28 -10 -19 -10 -20 8 -9 20 13 19 46 -2 62 -6 5 -1 6
11 2 18 -5 30 2 55 31 64 72 65 74 33 101 -15 13 -34 22 -41 19 -12 -5 -12 -1
-3 17 22 43 72 87 99 87 14 0 30 4 35 9 6 5 28 14 50 21 22 7 47 19 56 27 30
26 173 75 239 81 86 9 184 0 250 -24z m-1895 -209 c30 -29 32 -56 6 -79 -24
-22 -49 -12 -30 11 10 11 10 19 1 34 -7 11 -10 24 -7 29 3 6 -1 7 -9 4 -10 -4
-16 -18 -16 -38 0 -17 -4 -37 -9 -45 -7 -11 -11 -10 -20 7 -6 11 -11 28 -11
37 0 18 43 65 60 65 6 0 22 -11 35 -25z m1855 5 c43 -43 9 -108 -49 -95 -39 8
-54 35 -42 69 18 46 59 58 91 26z m-2264 -20 c65 -28 114 -116 114 -202 0
-116 -120 -206 -234 -177 -150 38 -197 243 -80 350 68 62 111 68 200 29z
m2725 18 c115 -39 180 -181 134 -290 -18 -45 -74 -94 -123 -108 -48 -15 -141
1 -182 30 -34 24 -90 131 -90 171 0 69 54 149 123 184 56 28 87 31 138 13z
m-1386 -169 c10 -15 -1 -23 -20 -15 -9 3 -13 10 -10 16 8 13 22 13 30 -1z m11
-149 c6 -47 23 -128 38 -180 85 -295 239 -472 501 -575 39 -15 71 -28 73 -30
4 -4 -126 -35 -213 -51 -132 -24 -364 -34 -539 -23 -181 10 -245 19 -399 56
l-109 25 108 53 c290 141 472 408 491 718 5 82 9 97 22 95 11 -2 18 -25 27
-88z m-1647 -102 c32 -37 32 -37 13 -58 l-19 -20 -46 43 c-50 46 -55 64 -40
151 l6 39 27 -59 c15 -33 41 -76 59 -96z m3332 34 c12 -52 12 -53 -17 -83 -40
-42 -134 -119 -109 -89 11 13 14 20 7 16 -8 -5 -22 2 -37 18 -13 14 -28 26
-33 26 -6 0 23 33 63 73 57 57 75 82 81 113 l7 39 13 -30 c7 -16 18 -54 25
-83z m-3292 -99 c-3 -19 2 -27 10 -14 6 9 11 10 15 2 4 -6 0 -14 -9 -18 -17
-6 -38 14 -29 29 6 10 14 10 13 1z m468 -228 c46 -41 88 -75 93 -75 5 0 8 -9
7 -19 0 -11 -4 -18 -8 -16 -3 3 -25 -12 -48 -32 -48 -41 -76 -34 -41 10 l21
26 -43 38 c-64 57 -98 94 -98 107 0 11 19 36 28 36 3 0 42 -34 89 -75z m2308
36 c3 -5 1 -12 -4 -15 -5 -3 -11 1 -15 9 -6 16 9 21 19 6z m-99 -153 c30 -28
51 -55 47 -59 -10 -10 -53 0 -53 12 0 4 -20 22 -45 40 -25 18 -45 38 -45 46 0
28 44 11 96 -39z"/>
<path d="M5182 5645 c-11 -12 -10 -15 3 -15 8 0 15 7 15 15 0 18 -2 18 -18 0z"/>
<path d="M5320 5551 c0 -38 34 -65 62 -50 14 8 18 19 16 42 -3 29 -6 32 -40
35 -36 3 -38 2 -38 -27z"/>
<path d="M3126 4829 c-96 -76 -46 -248 79 -273 29 -6 29 -5 -7 14 -66 36 -109
124 -89 182 18 50 49 78 89 78 103 0 185 -126 137 -210 -19 -34 -18 -39 6 -33
34 9 52 48 45 94 -10 61 -31 95 -83 130 -63 44 -135 51 -177 18z"/>
<path d="M3159 4791 c-72 -56 -19 -185 80 -198 95 -13 119 97 38 175 -43 42
-84 50 -118 23z"/>
<path d="M2789 4785 c-14 -8 -36 -34 -50 -59 -22 -42 -22 -48 -11 -92 34 -126
130 -166 251 -105 50 26 61 46 61 108 0 59 -25 110 -70 141 -39 26 -138 30
-181 7z m169 -21 c30 -21 52 -66 51 -106 l0 -33 -14 37 c-19 52 -44 87 -74
103 -23 12 -24 14 -6 15 11 0 31 -7 43 -16z m-56 -24 l33 -31 -35 21 c-72 41
-130 14 -130 -60 0 -55 22 -94 64 -114 45 -21 62 -20 97 5 33 23 39 9 9 -21
-29 -29 -63 -34 -104 -15 -41 20 -61 48 -77 108 -31 113 62 182 143 107z m-54
-69 c3 -8 -1 -12 -9 -9 -7 2 -15 10 -17 17 -3 8 1 12 9 9 7 -2 15 -10 17 -17z"/>
<path d="M3918 5041 c-36 -29 -51 -80 -46 -157 3 -53 9 -68 32 -93 80 -83 186
-23 186 106 0 112 -103 198 -172 144z m90 -104 c2 -22 -1 -37 -8 -37 -15 0
-34 46 -26 65 10 28 31 11 34 -28z"/>
<path d="M4923 4451 c2 -10 0 -26 -5 -35 -5 -10 -5 -16 0 -16 6 0 13 7 16 16
10 25 7 54 -5 54 -6 0 -9 -8 -6 -19z"/>
<path d="M2968 4100 c-112 -38 -194 -88 -174 -107 3 -3 36 12 73 34 103 61
134 75 188 89 30 7 40 13 25 13 -14 0 -64 -13 -112 -29z"/>
<path d="M2746 3751 c-12 -18 -17 -188 -9 -281 l8 -95 100 -17 c172 -28 505
-69 515 -63 6 3 10 22 10 41 0 30 -3 34 -27 35 -24 2 -25 2 -5 6 17 3 22 11
22 33 0 27 -3 29 -42 33 l-43 4 43 1 c39 2 43 4 40 24 -2 14 -13 25 -28 29
l-25 7 28 1 c28 1 28 2 25 58 l-3 58 -295 35 c-162 19 -280 36 -262 38 36 4
541 -46 554 -54 4 -3 8 6 8 21 0 18 -7 28 -24 35 -24 9 -496 60 -555 60 -17 0
-32 -4 -35 -9z m192 -109 c11 -4 13 -2 7 9 -7 12 -6 12 7 1 9 -7 15 -21 13
-30 -2 -9 -4 -26 -5 -37 -1 -15 -3 -16 -7 -5 -4 8 -13 20 -22 27 -14 11 -14
12 4 13 36 1 -6 20 -45 20 -19 0 -42 5 -50 11 -11 8 -2 9 34 4 27 -4 55 -9 64
-13z m98 -7 c10 -8 14 -15 8 -15 -5 0 -19 7 -30 15 -10 8 -14 15 -8 15 5 0 19
-7 30 -15z m-183 -12 c-7 -2 -21 -2 -30 0 -10 3 -4 5 12 5 17 0 24 -2 18 -5z
m437 -14 c19 -7 16 -7 -14 -3 -32 5 -38 3 -33 -10 5 -13 -2 -16 -41 -14 -36 1
-40 2 -14 5 35 5 43 19 15 26 -10 3 0 5 22 5 22 0 51 -4 65 -9z m-373 -23 c8
-8 -7 -8 -46 0 -17 4 -31 10 -31 14 0 8 67 -4 77 -14z m136 17 c-7 -2 -19 -2
-25 0 -7 3 -2 5 12 5 14 0 19 -2 13 -5z m80 -10 c-13 -2 -33 -2 -45 0 -13 2
-3 4 22 4 25 0 35 -2 23 -4z m-336 -29 c-3 -3 -12 -4 -19 -1 -8 3 -5 6 6 6 11
1 17 -2 13 -5z m126 -10 c31 -6 37 -11 37 -31 l0 -25 -17 21 c-12 14 -37 24
-73 30 -44 7 -48 9 -20 10 19 0 52 -2 73 -5z m327 -23 l25 -10 -26 0 c-22 -1
-26 -5 -25 -31 1 -25 5 -30 25 -30 13 0 21 -3 18 -6 -8 -9 -120 14 -169 33
-57 23 -41 25 22 3 82 -29 96 -27 96 14 0 26 -3 33 -15 28 -14 -5 -14 -4 -1
10 8 9 17 12 20 7 3 -4 17 -12 30 -18z m-145 9 c8 -12 -42 -12 -70 0 -16 7
-11 9 22 9 23 1 45 -3 48 -9z m-170 -50 c48 -7 49 -7 10 -8 -22 0 -65 3 -95 8
l-55 7 45 1 c25 0 68 -3 95 -8z m113 -17 c-10 -2 -28 -2 -40 0 -13 2 -5 4 17
4 22 1 32 -1 23 -4z m75 -23 c9 -11 28 -20 42 -20 14 0 29 -8 35 -20 10 -18 8
-20 -22 -19 -28 0 -30 2 -13 9 13 5 14 9 5 9 -8 0 -24 -4 -35 -9 -27 -11 -11
-16 94 -29 46 -6 87 -14 90 -17 3 -4 -10 -4 -29 -1 -19 3 -134 18 -255 34
-121 15 -212 29 -203 31 9 2 68 -4 130 -12 62 -9 118 -16 125 -16 21 0 17 68
-4 73 -15 4 -15 5 2 6 11 0 28 -8 38 -19z m-149 -6 c10 -4 32 -11 50 -15 19
-5 5 -5 -34 -2 -36 4 -87 7 -114 7 -28 1 -51 6 -53 13 -5 13 116 11 151 -3z
m-167 -20 c-3 -3 -12 -4 -19 -1 -8 3 -5 6 6 6 11 1 17 -2 13 -5z m488 -34 c3
-5 -1 -10 -9 -10 -9 0 -16 5 -16 10 0 6 4 10 9 10 6 0 13 -4 16 -10z"/>
<path d="M2660 3235 c-18 -22 15 -72 36 -54 20 16 17 46 -5 58 -14 8 -22 7
-31 -4z"/>
<path d="M2736 3215 c-9 -24 4 -45 29 -45 29 0 36 10 28 38 -6 26 -48 31 -57
7z"/>
<path d="M2825 3216 c-16 -12 -18 -18 -9 -33 6 -10 21 -19 33 -21 30 -5 39 25
14 49 -17 17 -21 18 -38 5z"/>
<path d="M2902 3208 c-27 -27 1 -73 36 -61 18 7 15 60 -4 67 -20 8 -18 8 -32
-6z"/>
<path d="M3033 3184 c-9 -24 10 -68 30 -72 27 -5 42 46 21 69 -21 23 -43 24
-51 3z"/>
<path d="M3405 3165 c-35 -34 -33 -78 4 -116 37 -36 73 -38 108 -3 21 21 24
32 20 62 -7 43 -46 82 -83 82 -14 0 -36 -11 -49 -25z m89 -4 c12 -13 16 -32
14 -57 -3 -38 -4 -39 -44 -39 -23 0 -40 4 -39 10 2 6 6 22 9 38 4 15 13 27 22
27 9 0 12 5 8 12 -10 15 -44 -27 -45 -56 0 -20 -1 -20 -8 -1 -9 22 4 65 22 77
20 13 43 9 61 -11z"/>
<path d="M3120 3150 c0 -37 24 -50 48 -26 20 20 6 49 -27 54 -18 3 -21 -2 -21
-28z"/>
<path d="M3206 3161 c-13 -14 -14 -24 -7 -44 12 -31 26 -40 51 -32 26 8 27 56
2 78 -23 21 -25 21 -46 -2z"/>
<path d="M3303 3153 c-15 -5 -17 -41 -4 -61 14 -22 56 -10 59 16 6 38 -21 59
-55 45z"/>
<path d="M6185 3190 c-12 -20 5 -60 30 -72 33 -15 40 -5 29 40 -6 27 -15 38
-31 40 -11 2 -24 -2 -28 -8z"/>
<path d="M764 2885 c-8 -21 3 -45 20 -45 18 0 40 36 31 50 -9 15 -45 12 -51
-5z"/>
<path d="M2905 2141 c-7 -12 12 -24 25 -16 11 7 4 25 -10 25 -5 0 -11 -4 -15
-9z"/>
<path d="M2701 1974 c-127 -34 -207 -129 -218 -256 -7 -75 15 -133 72 -192 55
-57 95 -77 164 -83 80 -7 131 10 191 64 68 61 92 110 97 198 7 107 -42 197
-133 247 -65 35 -108 40 -173 22z m147 -96 c96 -64 113 -221 33 -312 -46 -52
-167 -74 -230 -41 -128 66 -132 284 -6 361 55 34 144 30 203 -8z"/>
<path d="M2700 1864 c-67 -24 -113 -88 -113 -158 0 -86 51 -136 140 -136 97 0
158 56 158 145 0 60 -21 98 -71 127 -32 18 -91 30 -114 22z m86 -129 c21 -32
11 -72 -21 -87 -21 -10 -28 -8 -40 8 -8 10 -15 15 -15 10 0 -5 -7 -3 -15 4
-18 15 -20 61 -3 78 22 22 76 15 94 -13z"/>
<path d="M2980 1505 c0 -8 5 -15 10 -15 6 0 10 7 10 15 0 8 -4 15 -10 15 -5 0
-10 -7 -10 -15z"/>
<path d="M3955 2140 c-4 -6 -3 -16 3 -22 6 -6 12 -6 17 2 4 6 3 16 -3 22 -6 6
-12 6 -17 -2z"/>
<path d="M4065 1977 c-125 -49 -195 -147 -195 -272 0 -211 297 -347 458 -210
57 49 82 108 82 193 0 75 -33 182 -57 182 -6 0 -23 14 -36 30 -14 17 -29 30
-33 30 -4 0 -12 7 -18 16 -8 10 -34 18 -74 21 -34 3 -62 10 -62 14 0 12 -29
10 -65 -4z m164 -87 c140 -71 164 -275 42 -356 -53 -35 -109 -41 -166 -19 -61
23 -104 60 -126 110 -22 48 -25 135 -5 173 19 35 74 88 106 101 41 16 108 12
149 -9z"/>
<path d="M4074 1841 c-51 -31 -64 -58 -64 -129 0 -59 3 -67 33 -97 55 -55 145
-67 217 -30 40 21 53 55 48 124 -4 50 -9 66 -34 92 -16 17 -41 37 -56 45 -38
20 -107 17 -144 -5z m118 -98 c28 -32 30 -58 7 -86 -26 -34 -71 -36 -93 -5
-22 31 -20 58 6 85 26 27 59 30 80 6z"/>
<path d="M3872 1511 c2 -7 7 -12 11 -12 12 1 9 15 -3 20 -7 2 -11 -2 -8 -8z"/>
<path d="M4360 2110 c0 -13 7 -20 20 -20 13 0 20 7 20 20 0 13 -7 20 -20 20
-13 0 -20 -7 -20 -20z"/>
<path d="M2014 2026 c-61 -27 -68 -141 -11 -181 63 -44 157 5 157 82 0 47 -22
81 -66 99 -40 17 -41 17 -80 0z m60 -65 c10 -16 -5 -41 -25 -41 -19 0 -27 29
-12 43 9 10 31 9 37 -2z"/>
<path d="M4766 2006 c-40 -38 -47 -76 -21 -126 19 -36 43 -50 87 -50 59 0 108
44 108 96 0 104 -100 150 -174 80z m109 -62 c0 -10 -8 -20 -18 -22 -22 -4 -35
27 -16 39 20 12 34 5 34 -17z"/>
<path d="M1850 1700 c0 -5 5 -10 11 -10 5 0 7 5 4 10 -3 6 -8 10 -11 10 -2 0
-4 -4 -4 -10z"/>
<path d="M5120 1711 c0 -5 5 -13 10 -16 6 -3 10 -2 10 4 0 5 -4 13 -10 16 -5
3 -10 2 -10 -4z"/>
<path d="M496 3743 c-8 -8 -8 -477 0 -525 6 -35 9 -37 33 -31 14 3 29 11 33
17 10 15 10 498 0 513 -9 15 -58 34 -66 26z"/>
</g>
</svg>
